<svg xmlns="http://www.w3.org/2000/svg" viewBox="0 0 36.79 26"><defs><style>.cls-1{fill:#fff;}</style></defs><g id="Layer_2" data-name="Layer 2"><g id="Layer_1-2" data-name="Layer 1"><path class="cls-1" d="M3.18,5.86A2.68,2.68,0,0,1,3.18.5H33.61a2.68,2.68,0,0,1,0,5.36Z"/><path d="M33.61,1a2.18,2.18,0,0,1,0,4.36H3.18A2.18,2.18,0,0,1,3.18,1H33.61m0-1H3.18a3.18,3.18,0,0,0,0,6.36H33.61a3.18,3.18,0,0,0,0-6.36Z"/><path class="cls-1" d="M3.18,15.68a2.68,2.68,0,0,1,0-5.36H33.61a2.68,2.68,0,0,1,0,5.36Z"/><path d="M33.61,10.82a2.18,2.18,0,0,1,0,4.36H3.18a2.18,2.18,0,0,1,0-4.36H33.61m0-1H3.18a3.18,3.18,0,0,0,0,6.36H33.61a3.18,3.18,0,0,0,0-6.36Z"/><path class="cls-1" d="M3.18,25.5a2.68,2.68,0,0,1,0-5.36H33.61a2.68,2.68,0,1,1,0,5.36Z"/><path d="M33.61,20.64a2.18,2.18,0,1,1,0,4.36H3.18a2.18,2.18,0,0,1,0-4.36H33.61m0-1H3.18a3.18,3.18,0,0,0,0,6.36H33.61a3.18,3.18,0,1,0,0-6.36Z"/></g></g></svg>